<svg width="230" height="30" viewBox="0 0 230 30" fill="none" xmlns="http://www.w3.org/2000/svg">
<path d="M27.1875 7.45021C26.291 7.83693 25.3154 8.11525 24.3105 8.22364C25.3538 7.60383 26.1351 6.62462 26.5078 5.46974C25.5288 6.05213 24.4563 6.46051 23.3379 6.67677C22.8704 6.17704 22.3051 5.77894 21.6771 5.50726C21.049 5.23558 20.3718 5.09616 19.6875 5.09767C16.9189 5.09767 14.6924 7.34181 14.6924 10.0957C14.6924 10.4824 14.7393 10.8692 14.8154 11.2412C10.6699 11.0244 6.97266 9.04396 4.51465 6.01173C4.06677 6.77672 3.83207 7.64774 3.83496 8.53419C3.83496 10.2686 4.7168 11.7979 6.06152 12.6973C5.26906 12.6661 4.49514 12.4482 3.80273 12.0615V12.1231C3.80273 14.5518 5.51953 16.5645 7.80762 17.0274C7.378 17.1389 6.93606 17.196 6.49219 17.1973C6.16699 17.1973 5.85937 17.165 5.54883 17.1211C6.18164 19.1016 8.02441 20.54 10.2188 20.5869C8.50195 21.9317 6.35156 22.7227 4.0166 22.7227C3.59766 22.7227 3.21094 22.708 2.80957 22.6611C5.02441 24.082 7.65234 24.9024 10.4824 24.9024C19.6699 24.9024 24.6973 17.291 24.6973 10.6846C24.6973 10.4678 24.6973 10.251 24.6826 10.0342C25.6553 9.32228 26.5078 8.44044 27.1875 7.45021Z" fill="white"/>
<path d="M65 11.0946C62.8496 11.0946 61.0947 12.8495 61.0947 14.9999C61.0947 17.1503 62.8496 18.9052 65 18.9052C67.1504 18.9052 68.9053 17.1503 68.9053 14.9999C68.9053 12.8495 67.1504 11.0946 65 11.0946ZM76.7129 14.9999C76.7129 13.3827 76.7276 11.7802 76.6367 10.1659C76.5459 8.29091 76.1182 6.62685 74.7471 5.25575C73.3731 3.88173 71.7119 3.45693 69.8369 3.36611C68.2197 3.27529 66.6172 3.28993 65.0029 3.28993C63.3858 3.28993 61.7832 3.27529 60.169 3.36611C58.294 3.45693 56.6299 3.88466 55.2588 5.25575C53.8848 6.62978 53.46 8.29091 53.3692 10.1659C53.2783 11.7831 53.293 13.3856 53.293 14.9999C53.293 16.6142 53.2783 18.2196 53.3692 19.8339C53.46 21.7089 53.8877 23.3729 55.2588 24.744C56.6328 26.1181 58.294 26.5429 60.169 26.6337C61.7861 26.7245 63.3887 26.7099 65.0029 26.7099C66.6201 26.7099 68.2227 26.7245 69.8369 26.6337C71.7119 26.5429 73.376 26.1151 74.7471 24.744C76.1211 23.37 76.5459 21.7089 76.6367 19.8339C76.7305 18.2196 76.7129 16.6171 76.7129 14.9999ZM65 21.0087C61.6748 21.0087 58.9912 18.3251 58.9912 14.9999C58.9912 11.6747 61.6748 8.99111 65 8.99111C68.3252 8.99111 71.0088 11.6747 71.0088 14.9999C71.0088 18.3251 68.3252 21.0087 65 21.0087ZM71.2549 10.1483C70.4785 10.1483 69.8516 9.52138 69.8516 8.74501C69.8516 7.96864 70.4785 7.34169 71.2549 7.34169C72.0313 7.34169 72.6582 7.96864 72.6582 8.74501C72.6585 8.92936 72.6223 9.11195 72.5519 9.28231C72.4814 9.45268 72.3781 9.60747 72.2477 9.73782C72.1174 9.86818 71.9626 9.97154 71.7922 10.042C71.6218 10.1124 71.4393 10.1486 71.2549 10.1483Z" fill="white"/>
<g clip-path="url(#clip0_54_138)">
<path fill-rule="evenodd" clip-rule="evenodd" d="M130 15C130 23.2838 123.284 30 115 30C106.716 30 100 23.2838 100 15C100 6.71625 106.716 0 115 0C123.284 0 130 6.71625 130 15ZM115.538 11.0738C114.079 11.68 111.163 12.9362 106.79 14.8413C106.08 15.1237 105.707 15.4 105.674 15.67C105.616 16.1275 106.189 16.3075 106.966 16.5513C107.072 16.585 107.182 16.6187 107.295 16.6562C108.061 16.905 109.091 17.1962 109.626 17.2075C110.113 17.2175 110.655 17.0175 111.254 16.6075C115.339 13.8488 117.448 12.455 117.58 12.425C117.674 12.4037 117.804 12.3762 117.891 12.455C117.979 12.5325 117.97 12.68 117.961 12.72C117.904 12.9612 115.661 15.0475 114.499 16.1275C114.136 16.4638 113.88 16.7025 113.828 16.7575C113.71 16.8787 113.59 16.995 113.475 17.1063C112.762 17.7913 112.23 18.3062 113.505 19.1462C114.118 19.55 114.607 19.8838 115.096 20.2163C115.63 20.58 116.163 20.9425 116.853 21.395C117.028 21.51 117.195 21.6287 117.359 21.745C117.98 22.1887 118.539 22.5862 119.229 22.5237C119.629 22.4862 120.044 22.11 120.254 20.9862C120.75 18.3287 121.727 12.5738 121.954 10.2013C121.968 10.0043 121.959 9.80636 121.929 9.61125C121.911 9.45366 121.834 9.30866 121.714 9.205C121.535 9.05875 121.257 9.0275 121.132 9.03C120.569 9.04 119.704 9.34125 115.538 11.0738Z" fill="white"/>
</g>
<g clip-path="url(#clip1_54_138)">
<path d="M175.396 5.61497C173.484 4.75247 171.434 4.11497 169.29 3.75247C169.271 3.7488 169.251 3.75116 169.233 3.75923C169.216 3.76729 169.201 3.78065 169.191 3.79747C168.929 4.25872 168.636 4.85997 168.431 5.33497C166.158 4.99526 163.846 4.99526 161.572 5.33497C161.344 4.80854 161.087 4.29525 160.801 3.79747C160.792 3.78045 160.777 3.76678 160.759 3.75829C160.742 3.74981 160.722 3.7469 160.702 3.74997C158.56 4.11247 156.51 4.74997 154.596 5.61372C154.58 5.62062 154.566 5.6324 154.556 5.64747C150.666 11.3662 149.6 16.9437 150.124 22.4512C150.125 22.4647 150.129 22.4778 150.136 22.4896C150.143 22.5014 150.152 22.5117 150.162 22.52C152.433 24.173 154.965 25.4322 157.654 26.245C157.672 26.2507 157.693 26.2507 157.711 26.2449C157.73 26.2391 157.747 26.2278 157.759 26.2125C158.337 25.4388 158.85 24.618 159.291 23.7587C159.297 23.747 159.301 23.734 159.302 23.7208C159.302 23.7076 159.3 23.6944 159.295 23.682C159.29 23.6697 159.283 23.6586 159.273 23.6494C159.264 23.6402 159.252 23.6331 159.24 23.6287C158.432 23.3246 157.65 22.9577 156.9 22.5312C156.887 22.5235 156.875 22.5126 156.867 22.4994C156.859 22.4863 156.854 22.4713 156.853 22.4558C156.852 22.4403 156.855 22.4248 156.861 22.4107C156.868 22.3966 156.878 22.3843 156.89 22.375C157.047 22.2587 157.205 22.1375 157.355 22.0162C157.368 22.0053 157.385 21.9984 157.402 21.9962C157.419 21.994 157.437 21.9966 157.452 22.0037C162.361 24.2087 167.677 24.2087 172.529 22.0037C172.545 21.9962 172.562 21.9932 172.58 21.9952C172.597 21.9972 172.614 22.004 172.627 22.015C172.777 22.1375 172.934 22.2587 173.092 22.375C173.105 22.3841 173.115 22.3962 173.122 22.4102C173.128 22.4242 173.132 22.4396 173.131 22.4551C173.13 22.4706 173.125 22.4856 173.117 22.4989C173.109 22.5122 173.098 22.5233 173.085 22.5312C172.337 22.9612 171.56 23.325 170.744 23.6275C170.731 23.632 170.72 23.6392 170.71 23.6485C170.701 23.6578 170.693 23.6691 170.688 23.6815C170.684 23.6939 170.681 23.7072 170.682 23.7205C170.683 23.7339 170.686 23.7469 170.692 23.7587C171.142 24.6175 171.657 25.435 172.224 26.2112C172.236 26.2271 172.252 26.2391 172.271 26.2453C172.289 26.2516 172.31 26.2519 172.329 26.2462C175.022 25.4358 177.558 24.1759 179.831 22.52C179.842 22.5122 179.852 22.5022 179.859 22.4905C179.865 22.4789 179.87 22.4659 179.871 22.4525C180.496 16.085 178.824 10.5525 175.435 5.64997C175.427 5.63404 175.413 5.62162 175.396 5.61497ZM160.025 19.0975C158.547 19.0975 157.329 17.7612 157.329 16.1225C157.329 14.4825 158.524 13.1475 160.025 13.1475C161.537 13.1475 162.745 14.4937 162.721 16.1225C162.721 17.7625 161.526 19.0975 160.025 19.0975ZM169.994 19.0975C168.515 19.0975 167.297 17.7612 167.297 16.1225C167.297 14.4825 168.491 13.1475 169.994 13.1475C171.506 13.1475 172.714 14.4937 172.69 16.1225C172.69 17.7625 171.507 19.0975 169.994 19.0975Z" fill="white"/>
</g>
<g clip-path="url(#clip2_54_138)">
<path d="M216.922 15C216.922 19.6594 213.134 23.4375 208.46 23.4375C207.35 23.439 206.252 23.2219 205.226 22.7987C204.2 22.3755 203.268 21.7544 202.483 20.9709C201.697 20.1874 201.073 19.2568 200.647 18.2324C200.221 17.2079 200.001 16.1095 200 15C200 10.3388 203.787 6.56251 208.46 6.56251C209.57 6.56079 210.669 6.77767 211.695 7.20079C212.72 7.6239 213.653 8.24495 214.439 9.02847C215.224 9.81199 215.848 10.7426 216.274 11.7672C216.7 12.7918 216.92 13.8903 216.922 15ZM226.203 15C226.203 19.3875 224.309 22.9425 221.973 22.9425C219.637 22.9425 217.743 19.3856 217.743 15C217.743 10.6125 219.637 7.05751 221.973 7.05751C224.309 7.05751 226.203 10.6144 226.203 15ZM230 15C230 18.93 229.334 22.1156 228.511 22.1156C227.69 22.1156 227.024 18.9281 227.024 15C227.024 11.07 227.69 7.88439 228.513 7.88439C229.334 7.88439 230 11.07 230 15Z" fill="white"/>
</g>
<defs>
<clipPath id="clip0_54_138">
<rect width="30" height="30" fill="white" transform="translate(100)"/>
</clipPath>
<clipPath id="clip1_54_138">
<rect width="30" height="30" fill="white" transform="translate(150)"/>
</clipPath>
<clipPath id="clip2_54_138">
<rect width="30" height="30" fill="white" transform="translate(200)"/>
</clipPath>
</defs>
</svg>
