<svg width="187" height="43" viewBox="0 0 187 43" fill="none" xmlns="http://www.w3.org/2000/svg">
<path d="M65.5234 30.252C68.2954 30.252 70.7594 29.356 72.4114 28.012C74.0634 26.668 75.1274 25.184 75.6594 23.644L72.5234 22.216C71.9914 23.644 71.0674 24.82 69.7794 25.716C68.5194 26.584 67.1194 27.032 65.6074 27.032C63.5914 27.032 61.8274 26.276 60.3434 24.792C58.8594 23.28 58.1314 21.348 58.1314 18.996C58.1314 16.616 58.8874 14.712 60.3714 13.228C61.8554 11.744 63.6194 10.988 65.6074 10.988C69.0514 10.988 71.3474 12.948 72.4394 15.776L75.5474 14.348C75.0714 12.78 74.0074 11.296 72.4394 9.98C70.8714 8.636 68.4354 7.768 65.6634 7.768C62.6114 7.768 60.0074 8.86 57.7954 11.016C55.5834 13.172 54.4914 15.86 54.4914 19.108C54.4914 22.552 55.8354 25.492 57.9354 27.368C60.0354 29.188 62.7234 30.252 65.5234 30.252ZM86.187 14.74C84.003 14.74 82.127 15.496 80.587 16.98C79.047 18.464 78.263 20.312 78.263 22.496C78.263 24.68 79.019 26.528 80.559 28.012C82.099 29.496 83.975 30.252 86.159 30.252C88.371 30.252 90.219 29.496 91.731 28.012C93.271 26.5 94.027 24.652 94.027 22.44C94.027 20.256 93.271 18.436 91.731 16.952C90.191 15.468 88.343 14.74 86.187 14.74ZM82.911 19.136C83.751 18.212 84.843 17.764 86.159 17.764C87.475 17.764 88.567 18.212 89.379 19.136C90.219 20.06 90.639 21.18 90.639 22.496C90.639 23.812 90.219 24.932 89.407 25.856C88.595 26.78 87.503 27.228 86.187 27.228C84.871 27.228 83.779 26.752 82.939 25.828C82.099 24.876 81.679 23.756 81.679 22.44C81.679 21.124 82.099 20.032 82.911 19.136ZM111.482 30V20.788C111.482 17.204 109.55 14.74 105.882 14.74C103.978 14.74 102.466 15.524 101.318 17.064V15.048H98.0699V30H101.402V21.684C101.402 19.416 102.746 17.904 104.846 17.904C107.058 17.904 108.15 19.388 108.15 21.628V30H111.482ZM123.125 30.252C124.945 30.252 126.429 29.804 127.577 28.908C128.725 28.012 129.537 26.948 129.957 25.744L127.045 24.456C126.345 26.304 125.057 27.228 123.181 27.228C121.921 27.228 120.857 26.78 120.017 25.884C119.177 24.988 118.757 23.84 118.757 22.44C118.757 21.068 119.177 19.948 120.017 19.08C120.885 18.212 121.921 17.764 123.153 17.764C125.057 17.764 126.345 18.688 126.989 20.508L129.845 19.22C128.949 16.56 126.485 14.74 123.125 14.74C120.913 14.74 119.065 15.496 117.581 17.036C116.097 18.576 115.341 20.396 115.341 22.496C115.341 24.708 116.097 26.556 117.581 28.04C119.065 29.524 120.913 30.252 123.125 30.252ZM147.473 23.504C147.501 23.252 147.529 22.916 147.529 22.468C147.529 20.144 146.885 18.296 145.597 16.868C144.309 15.44 142.517 14.74 140.249 14.74C138.093 14.74 136.301 15.496 134.873 17.008C133.445 18.52 132.717 20.34 132.717 22.496C132.717 24.708 133.473 26.584 134.957 28.068C136.469 29.552 138.345 30.28 140.557 30.28C143.245 30.28 145.681 28.992 146.941 26.668L144.533 25.072C143.721 26.612 142.377 27.396 140.501 27.396C139.353 27.396 138.345 27.032 137.477 26.304C136.609 25.548 136.161 24.624 136.133 23.504H147.473ZM140.249 17.596C142.377 17.596 144.029 18.884 144.141 20.984H136.301C136.609 18.94 138.205 17.596 140.249 17.596ZM159.688 14.992C159.492 14.936 159.24 14.908 158.876 14.908C157.056 14.908 155.684 15.748 154.76 17.428V15.048H151.512V30H154.844V22.412C154.844 19.808 156.188 18.324 158.736 18.324C159.1 18.324 159.408 18.352 159.688 18.408V14.992ZM171.212 18.044V15.048H167.544V10.428H164.212V15.048H161.468V18.044H164.212V25.184C164.212 28.432 166.116 30.168 169.392 30.168C170.036 30.168 170.652 30.056 171.184 29.86V27.032C170.82 27.116 170.456 27.144 170.12 27.144C168.412 27.144 167.544 26.444 167.544 24.652V18.044H171.212ZM174.46 15.048V17.96H182.356L174.236 27.228V30H186.556V27.088H178.296L186.528 17.708V15.048H174.46Z" fill="white" fill-opacity="0.87"/>
<rect width="41" height="41" fill="#2CAE77"/>
<path d="M11 21C11 23.8713 11.9674 26.2475 13.9021 28.1535C15.8368 30.0594 18.218 31 21.0457 31C23.1292 31 24.9648 30.5049 26.5522 29.4901C28.1645 28.4752 29.3055 27.0891 30 25.3069L25.6345 23.2277C24.7167 25.3317 23.2037 26.3713 21.0705 26.3713C19.607 26.3713 18.3916 25.8515 17.4243 24.7871C16.4817 23.7228 16.0104 22.4604 16.0104 20.9752C16.0104 19.4901 16.5065 18.2277 17.4739 17.1634C18.4661 16.099 19.6567 15.5792 21.0705 15.5792C23.2285 15.5792 24.7415 16.6188 25.5849 18.6733L29.9008 16.6188C29.2311 14.8366 28.1397 13.4505 26.577 12.4851C25.0144 11.4951 23.2037 11 21.1449 11C18.2924 11 15.8864 11.9653 13.9269 13.9208C11.9674 15.8762 11 18.2277 11 21Z" fill="white" fill-opacity="0.87"/>
</svg>
