<svg width="35" height="35" viewBox="0 0 35 35" fill="none" xmlns="http://www.w3.org/2000/svg">
<circle cx="17.5" cy="17.5" r="17.5" fill="#121212"/>
<path d="M27.5342 12.9238C27.2069 12.1661 26.7351 11.4795 26.145 10.9024C25.5545 10.3235 24.8583 9.86352 24.0942 9.54738C23.3019 9.21826 22.4522 9.0498 21.5942 9.05177C20.3906 9.05177 19.2163 9.38136 18.1958 10.0039C17.9517 10.1528 17.7197 10.3164 17.5 10.4946C17.2803 10.3164 17.0483 10.1528 16.8042 10.0039C15.7837 9.38136 14.6094 9.05177 13.4058 9.05177C12.5391 9.05177 11.6992 9.21779 10.9058 9.54738C10.1392 9.86476 9.44824 10.3213 8.85498 10.9024C8.26415 11.4788 7.79218 12.1656 7.46582 12.9238C7.12646 13.7124 6.95312 14.5498 6.95312 15.4116C6.95312 16.2246 7.11914 17.0718 7.44873 17.9336C7.72461 18.6538 8.12012 19.4009 8.62549 20.1553C9.42627 21.3491 10.5273 22.5943 11.8945 23.8565C14.1602 25.9487 16.4038 27.3941 16.499 27.4527L17.0776 27.8237C17.334 27.9873 17.6636 27.9873 17.9199 27.8237L18.4985 27.4527C18.5938 27.3916 20.835 25.9487 23.103 23.8565C24.4702 22.5943 25.5713 21.3491 26.3721 20.1553C26.8774 19.4009 27.2754 18.6538 27.5488 17.9336C27.8784 17.0718 28.0444 16.2246 28.0444 15.4116C28.0469 14.5498 27.8735 13.7124 27.5342 12.9238ZM17.5 25.8926C17.5 25.8926 8.80859 20.3237 8.80859 15.4116C8.80859 12.9238 10.8667 10.9072 13.4058 10.9072C15.1904 10.9072 16.7383 11.9033 17.5 13.3584C18.2617 11.9033 19.8096 10.9072 21.5942 10.9072C24.1333 10.9072 26.1914 12.9238 26.1914 15.4116C26.1914 20.3237 17.5 25.8926 17.5 25.8926Z" fill="#808080"/>
</svg>
