<svg width="58" height="58" viewBox="0 0 58 58" fill="none" xmlns="http://www.w3.org/2000/svg">
<rect width="58" height="58" fill="#121212"/>
<path d="M31.7551 27.5574C33.0109 27.93 34.0279 28.5864 34.8061 29.5266C35.602 30.4491 36 31.5668 36 32.8796C36 34.7955 35.3544 36.2946 34.0633 37.3768C32.7898 38.4589 31.2245 39 29.3673 39C27.917 39 26.617 38.6718 25.4673 38.0154C24.3354 37.3413 23.5129 36.3567 23 35.0616L26.1306 33.2521C26.5905 34.6891 27.6694 35.4076 29.3673 35.4076C30.3048 35.4076 31.0299 35.1858 31.5429 34.7423C32.0735 34.281 32.3388 33.6601 32.3388 32.8796C32.3388 32.1167 32.0735 31.5047 31.5429 31.0434C31.0299 30.5822 30.3048 30.3515 29.3673 30.3515H28.5714L27.1653 28.2227L30.8265 23.4328H23.5571V20H35.2306V23.0336L31.7551 27.5574Z" fill="white" fill-opacity="0.87"/>
</svg>
