<svg width="58" height="58" viewBox="0 0 58 58" fill="none" xmlns="http://www.w3.org/2000/svg">
<rect width="58" height="58" fill="#121212"/>
<path d="M23.1268 39V36.2591L29.1903 29.7129C30.5433 28.2227 31.2199 26.9809 31.2199 25.9874C31.2199 25.26 31 24.6746 30.5603 24.2311C30.1374 23.7876 29.5877 23.5658 28.9112 23.5658C27.5751 23.5658 26.5856 24.2932 25.9429 25.7479L23 23.9384C23.5581 22.6611 24.3615 21.6853 25.4101 21.0112C26.4588 20.3371 27.6089 20 28.8605 20C30.4672 20 31.8457 20.5322 32.9958 21.5966C34.1459 22.6433 34.7209 24.0626 34.7209 25.8543C34.7209 27.788 33.7484 29.775 31.8034 31.8151L28.3277 35.4608H35V39H23.1268Z" fill="white" fill-opacity="0.87"/>
</svg>
