<svg width="22" height="22" viewBox="0 0 22 22" fill="none" xmlns="http://www.w3.org/2000/svg">
<path d="M18.9062 17.9609H3.09375C2.71348 17.9609 2.40625 18.2682 2.40625 18.6484V19.4219C2.40625 19.5164 2.48359 19.5938 2.57812 19.5938H19.4219C19.5164 19.5938 19.5938 19.5164 19.5938 19.4219V18.6484C19.5938 18.2682 19.2865 17.9609 18.9062 17.9609ZM5.53652 16.1562C5.57949 16.1562 5.62246 16.152 5.66543 16.1455L9.2791 15.5117C9.32207 15.5031 9.36289 15.4838 9.39297 15.4516L18.5002 6.34434C18.5201 6.32446 18.5359 6.30085 18.5467 6.27486C18.5575 6.24887 18.563 6.22101 18.563 6.19287C18.563 6.16473 18.5575 6.13687 18.5467 6.11088C18.5359 6.08489 18.5201 6.06128 18.5002 6.04141L14.9295 2.46855C14.8887 2.42773 14.835 2.40625 14.777 2.40625C14.7189 2.40625 14.6652 2.42773 14.6244 2.46855L5.51719 11.5758C5.48496 11.608 5.46563 11.6467 5.45703 11.6896L4.82324 15.3033C4.80234 15.4184 4.80981 15.5369 4.845 15.6484C4.88019 15.76 4.94204 15.8613 5.0252 15.9436C5.16699 16.0811 5.34531 16.1562 5.53652 16.1562Z" fill="white" fill-opacity="0.87"/>
</svg>
