<svg width="16" height="16" viewBox="0 0 16 16" fill="none" xmlns="http://www.w3.org/2000/svg">
<circle cx="8" cy="8" r="7.75" fill="#0F3D2A" stroke="#2CAE77" stroke-width="0.5"/>
<path d="M10.707 9.96562C10.5596 9.61654 10.3458 9.29946 10.0773 9.03203C9.8097 8.76384 9.49267 8.55 9.14374 8.40234C9.14061 8.40078 9.13749 8.4 9.13436 8.39844C9.62108 8.04688 9.93749 7.47422 9.93749 6.82812C9.93749 5.75781 9.0703 4.89062 7.99999 4.89062C6.92968 4.89062 6.06249 5.75781 6.06249 6.82812C6.06249 7.47422 6.3789 8.04687 6.86561 8.39922C6.86249 8.40078 6.85936 8.40156 6.85624 8.40312C6.50624 8.55078 6.19218 8.7625 5.92265 9.03281C5.65445 9.30044 5.44062 9.61748 5.29296 9.96641C5.1479 10.308 5.06966 10.6743 5.06249 11.0453C5.06228 11.0537 5.06374 11.0619 5.06679 11.0697C5.06984 11.0775 5.07441 11.0846 5.08023 11.0905C5.08606 11.0965 5.09302 11.1012 5.1007 11.1045C5.10839 11.1077 5.11665 11.1094 5.12499 11.1094H5.59374C5.62811 11.1094 5.65546 11.082 5.65624 11.0484C5.67186 10.4453 5.91405 9.88047 6.34218 9.45234C6.78515 9.00938 7.37343 8.76562 7.99999 8.76562C8.62655 8.76562 9.21483 9.00938 9.6578 9.45234C10.0859 9.88047 10.3281 10.4453 10.3437 11.0484C10.3445 11.0828 10.3719 11.1094 10.4062 11.1094H10.875C10.8833 11.1094 10.8916 11.1077 10.8993 11.1045C10.907 11.1012 10.9139 11.0965 10.9197 11.0905C10.9256 11.0846 10.9301 11.0775 10.9332 11.0697C10.9362 11.0619 10.9377 11.0537 10.9375 11.0453C10.9297 10.6719 10.8523 10.3086 10.707 9.96562ZM7.99999 8.17188C7.6414 8.17188 7.3039 8.03203 7.04999 7.77813C6.79608 7.52422 6.65624 7.18672 6.65624 6.82812C6.65624 6.46953 6.79608 6.13203 7.04999 5.87812C7.3039 5.62422 7.6414 5.48438 7.99999 5.48438C8.35858 5.48438 8.69608 5.62422 8.94999 5.87812C9.2039 6.13203 9.34374 6.46953 9.34374 6.82812C9.34374 7.18672 9.2039 7.52422 8.94999 7.77813C8.69608 8.03203 8.35858 8.17188 7.99999 8.17188Z" fill="white"/>
</svg>
